<svg xmlns="http://www.w3.org/2000/svg" width="80" height="32" viewBox="0 0 80 32">
  <defs>
    <style>
      .cls-1 {
        fill: #66a3f0;
        fill-rule: evenodd;
      }
    </style>
  </defs>
  <path id="logo_comodo" class="cls-1" d="M1123.28,378.545a1.337,1.337,0,0,0,1.57-1.011,8.048,8.048,0,0,0,.21-1.828,1.047,1.047,0,0,0-.4-0.764,1.67,1.67,0,0,0-2.47,1.06c-0.07.366-.1,0.739-0.16,1.108A1.069,1.069,0,0,0,1123.28,378.545Zm-15.6,0a1.264,1.264,0,0,0,1.47-.874,9.5,9.5,0,0,0,.26-2.06,0.96,0.96,0,0,0-.43-0.692,1.659,1.659,0,0,0-2.44,1.128c-0.06.335-.09,0.675-0.15,1.012C1106.23,378.128,1106.59,378.547,1107.68,378.545ZM1133.8,369h-47.6a16,16,0,1,0,0,32h47.6A16,16,0,1,0,1133.8,369Zm1.43,6.755a2.194,2.194,0,0,1,1.64-1.718,5.328,5.328,0,0,1,2.84-.039,1.771,1.771,0,0,1,1.42,2.129l-0.12.919a2.525,2.525,0,0,1-2.59,2.393c-0.23.019-.46,0-0.69,0a6.536,6.536,0,0,1-1.68-.293,1.587,1.587,0,0,1-1.07-1.655A10.226,10.226,0,0,1,1135.23,375.755Zm-7.48,2.85c0.13-1,.27-2,0.41-3.011a0.571,0.571,0,0,1,.13-0.048c1.22-.094,1.4.09,1.24,1.291-0.06.5-.11,1-0.18,1.637a9.209,9.209,0,0,0,1.81-.216,1.391,1.391,0,0,0,.73-0.823,5.255,5.255,0,0,0,.21-1.537,0.824,0.824,0,0,0-.84-0.95c-0.67-.061-1.35-0.043-2.02-0.063s-0.83-.175-0.85-0.922c0.75,0,1.51-.027,2.26.009a8.222,8.222,0,0,1,1.75.222,1.538,1.538,0,0,1,1.25,1.743,9.651,9.651,0,0,1-.21,1.693,2.179,2.179,0,0,1-2.26,1.693c-0.93.065-1.88,0.038-2.82,0.018A0.553,0.553,0,0,1,1127.75,378.605Zm-7.07-2.729a2.159,2.159,0,0,1,1.89-1.872,8.649,8.649,0,0,1,2.54,0,1.683,1.683,0,0,1,1.52,2,11.448,11.448,0,0,1-.22,1.545,2.514,2.514,0,0,1-2.47,1.889c-0.23.021-.46,0-0.69,0a6.953,6.953,0,0,1-1.9-.4,1.351,1.351,0,0,1-.85-1.375A13.4,13.4,0,0,1,1120.68,375.876Zm-8.36,1.517c0.12-1.032.24-2.065,0.4-3.093a0.5,0.5,0,0,1,.34-0.33,1.265,1.265,0,0,1,1.43.686c0.36,0.674.81,1.3,1.26,2,0.63-.7,1.27-1.334,1.81-2.035a1.787,1.787,0,0,1,1.9-.626c-0.19,1.557-.36,3.074-0.57,4.585-0.1.681-.63,0.893-1.62,0.71l0.36-2.971a0.922,0.922,0,0,0-.1-0.051l-0.99,1.24c-0.2.241-.39,0.49-0.59,0.721-0.33.363-.56,0.34-0.8-0.091a18.787,18.787,0,0,0-1.1-1.843c-0.05.3-.1,0.6-0.14,0.906-0.05.354-.1,0.708-0.13,1.064a0.985,0.985,0,0,1-1.24,1.083h-0.45C1112.17,378.669,1112.24,378.031,1112.32,377.393Zm-7.3-1.449a2.326,2.326,0,0,1,1.93-1.969,5.45,5.45,0,0,1,2.65.034,1.773,1.773,0,0,1,1.39,2.021c-0.03.34-.08,0.68-0.13,1.017a2.544,2.544,0,0,1-2.64,2.394c-0.22.016-.43,0-0.65,0a6.677,6.677,0,0,1-1.72-.317,1.559,1.559,0,0,1-1.02-1.633A10.115,10.115,0,0,1,1105.02,375.944Zm-6.22,1.041c0.05-.305.08-0.612,0.13-0.917a2.131,2.131,0,0,1,1.85-1.951c1.16-.17,2.35-0.155,3.56-0.222a1.029,1.029,0,0,1-1.1,1.022c-0.44.015-.88-0.007-1.33,0a1.363,1.363,0,0,0-1.5,1.3,9.855,9.855,0,0,0-.13,1.21,0.81,0.81,0,0,0,.86.959c0.69,0.042,1.39.028,2.08,0.04,0.17,0,.35.016,0.53,0.024a0.927,0.927,0,0,1-1,.9c-0.66.009-1.32,0.017-1.98-.007A1.884,1.884,0,0,1,1098.8,376.985Zm-4.15,12.413a2.3,2.3,0,0,0-.6,1.8,1.243,1.243,0,0,1-.83,1.407,2.237,2.237,0,0,0-1.25,1.363,1.242,1.242,0,0,1-1.33.963,2.228,2.228,0,0,0-1.7.731,1.329,1.329,0,0,1-1.67.357,2.185,2.185,0,0,0-1.85.005,1.321,1.321,0,0,1-1.67-.366,2.179,2.179,0,0,0-1.64-.727,1.243,1.243,0,0,1-1.38-.972,2.343,2.343,0,0,0-1.2-1.339,1.3,1.3,0,0,1-.9-1.541c0.06-.024.11-0.047,0.16-0.07a10.264,10.264,0,0,0-.73-1.553,1.313,1.313,0,0,1-.18-1.677,2.168,2.168,0,0,0,.2-1.822,1.293,1.293,0,0,1,.52-1.6,2.62,2.62,0,0,0,.97-1.641,1.775,1.775,0,0,1,.68-1.012,0.745,0.745,0,0,0,.38-0.7,16.165,16.165,0,0,1,.19-2.879,5.7,5.7,0,0,1,11.19.79c0.07,0.7.07,1.417,0.08,2.125a0.688,0.688,0,0,0,.35.657,1.784,1.784,0,0,1,.7,1.011,2.638,2.638,0,0,0,1.04,1.721,1.213,1.213,0,0,1,.46,1.464,2.183,2.183,0,0,0,.17,1.879A1.269,1.269,0,0,1,1094.65,389.4Zm38.83,6.776h-27.05a7.572,7.572,0,1,1,0-15.143h27.05A7.572,7.572,0,1,1,1133.48,396.174Zm-49.66-16.356a4.852,4.852,0,0,0,1.63-.4,1.583,1.583,0,0,1,1.78.006,7.264,7.264,0,0,0,1.24.515c0.77-.076.89-0.2,0.8-0.9a2.99,2.99,0,0,0-3.02-2.5,3.042,3.042,0,0,0-2.88,2.736C1083.35,379.632,1083.5,379.86,1083.82,379.818Zm2.57,2.167a5.65,5.65,0,1,0-.05,11.3A5.649,5.649,0,1,0,1086.39,381.985Zm2.19,3.28c-0.62.014-1.24-.01-1.86,0.012a1.789,1.789,0,0,0-1.98,1.654,11.372,11.372,0,0,0-.19,1.644,1.1,1.1,0,0,0,1.18,1.317c0.72,0.06,1.44.03,2.16,0.036,0.42,0,.84,0,1.31,0a1.336,1.336,0,0,1-1.45,1.282,22.338,22.338,0,0,1-2.33-.017,5.489,5.489,0,0,1-1.72-.429,2.028,2.028,0,0,1-1.22-2.125,14.056,14.056,0,0,1,.24-1.938,2.872,2.872,0,0,1,2.56-2.542c1.53-.2,3.09-0.172,4.66-0.245A1.322,1.322,0,0,1,1088.58,385.265Zm50.75-7.646a7.724,7.724,0,0,0,.26-1.918,1,1,0,0,0-.38-0.736,1.681,1.681,0,0,0-2.47.9c-0.12.5-.16,1.023-0.26,1.672a1.967,1.967,0,0,0,.35.744A1.665,1.665,0,0,0,1139.33,377.619Zm-32.72,8.509c0-.652.26-0.9,0.73-0.9s0.72,0.248.72,0.9v0.38h1.38V386.22a2.15,2.15,0,1,0-4.29,0c0,2.611,2.85,2.963,2.85,4.843a0.765,0.765,0,1,1-1.51,0V390.41h-1.38v0.561a2.174,2.174,0,1,0,4.34,0C1109.45,388.361,1106.61,388.009,1106.61,386.128Zm3.68,7.036h3.96v-1.305h-2.51v-2.676h2v-1.305h-2v-2.545h2.51v-1.305h-3.96v9.136Zm6.91-9.241a2.012,2.012,0,0,0-2.17,2.3v4.751a2.174,2.174,0,1,0,4.34,0v-1.213h-1.38v1.305a0.761,0.761,0,1,1-1.5,0v-4.935a0.763,0.763,0,1,1,1.5,0v0.979h1.38V386.22A2.012,2.012,0,0,0,1117.2,383.923Zm5.95,7.153a0.765,0.765,0,1,1-1.51,0v-7.048h-1.45v6.956a2.174,2.174,0,1,0,4.34,0v-6.956h-1.38v7.048Zm6.73-.431a2.365,2.365,0,0,1-.01-3.8v-0.719a1.853,1.853,0,0,0-2.16-2.1h-2.19v9.136h1.45v-3.72h0.51c0.66,0,.95.314,0.95,1.162v1.436a2.778,2.778,0,0,0,.13,1.122h1.48a2.588,2.588,0,0,1-.16-1.11v-1.409Zm-1.47-3.472a0.8,0.8,0,0,1-.87.966h-0.57v-2.806h0.7c0.52,0,.74.287,0.74,0.939v0.9Zm2.43,5.991h3.96v-1.305h-2.51v-2.676h2v-1.305h-2v-2.545h2.51v-1.305h-3.96v9.136Z" transform="translate(-1070 -369)"/>
</svg>
